<?xml version="1.0" standalone="no"?>
<!DOCTYPE svg PUBLIC "-//W3C//DTD SVG 20010904//EN"
 "http://www.w3.org/TR/2001/REC-SVG-20010904/DTD/svg10.dtd">
<svg version="1.0" xmlns="http://www.w3.org/2000/svg"
 width="500.000000pt" height="500.000000pt" viewBox="0 0 500.000000 500.000000"
 preserveAspectRatio="xMidYMid meet">
<metadata>
Created by potrace 1.14, written by Peter Selinger 2001-2017
</metadata>
<g transform="translate(0.000000,500.000000) scale(0.100000,-0.100000)"
fill="#000000" stroke="none">
<path d="M133 4546 c4 -9 82 -147 175 -308 504 -874 1223 -2119 1241 -2149 11
-19 26 -45 34 -59 7 -14 72 -126 144 -250 71 -124 141 -245 155 -270 14 -25
108 -187 208 -360 101 -173 188 -324 194 -335 49 -90 211 -365 216 -365 4 0
24 31 55 85 6 11 74 128 150 260 76 132 185 321 242 420 57 99 107 187 113
195 5 8 26 44 46 80 21 36 136 236 257 445 121 209 229 396 239 415 40 70 252
436 269 465 11 16 22 37 26 45 4 8 40 71 80 139 40 67 73 124 73 126 0 3 262
457 280 485 17 27 95 165 99 175 2 6 12 21 21 35 9 14 28 45 42 70 24 44 122
213 143 248 6 9 24 41 40 71 17 30 35 61 40 70 33 52 155 269 155 275 0 3
-628 6 -1396 6 -1208 0 -1395 -2 -1391 -14 3 -8 70 -126 149 -263 79 -136 170
-294 203 -350 32 -57 62 -103 65 -103 3 0 26 35 50 78 25 42 49 84 55 94 5 9
25 43 43 76 l33 59 730 0 c401 0 729 -3 729 -6 -1 -3 -12 -24 -25 -46 -14 -22
-28 -47 -32 -55 -4 -8 -62 -110 -130 -227 -67 -116 -130 -226 -140 -245 -10
-18 -37 -64 -60 -103 -60 -101 -251 -432 -281 -485 -14 -25 -81 -142 -150
-260 -68 -118 -133 -231 -144 -250 -54 -95 -373 -648 -387 -670 -8 -14 -27
-46 -41 -71 -74 -134 -246 -428 -250 -429 -3 0 -14 17 -25 38 -11 20 -40 71
-64 112 -24 41 -77 134 -118 205 -40 72 -78 137 -83 145 -37 63 -379 653 -421
726 -9 18 -111 193 -225 390 -295 511 -573 993 -595 1032 -67 116 -104 182
-171 297 -42 72 -100 173 -131 225 l-55 95 -242 3 c-211 2 -242 0 -237 -12z"/>
<path d="M1111 4538 c7 -13 46 -81 87 -152 41 -72 82 -144 92 -160 10 -17 41
-71 70 -121 29 -49 64 -110 78 -135 14 -25 89 -155 167 -290 78 -135 235 -407
350 -605 114 -198 266 -461 338 -585 71 -124 145 -252 163 -285 18 -33 36 -61
41 -62 5 -2 34 41 65 94 31 54 80 139 108 188 29 50 63 108 76 130 56 101 415
722 424 735 6 8 16 27 23 43 6 15 15 27 19 27 4 0 8 4 8 9 0 5 41 79 90 165
50 85 92 161 95 168 4 11 -39 13 -232 12 -131 -1 -241 -2 -245 -3 -3 0 -28
-40 -55 -88 -26 -47 -55 -98 -63 -112 -8 -14 -62 -107 -119 -206 -57 -99 -114
-196 -126 -215 -12 -19 -30 -52 -40 -73 -15 -32 -20 -36 -31 -25 -10 11 -189
317 -253 433 -9 17 -42 73 -72 125 -31 52 -142 244 -246 425 -237 411 -233
403 -290 503 l-47 82 -243 0 -244 0 12 -22z"/>
</g>
</svg>
